<?xml version="1.0" encoding="UTF-8"?>
<svg xmlns="http://www.w3.org/2000/svg" xmlns:xlink="http://www.w3.org/1999/xlink" width="65px" height="65px" viewBox="0 0 65 65" version="1.1">
<g id="surface1">
<rect x="0" y="0" width="65" height="65" style="fill:rgb(100%,100%,100%);fill-opacity:1;stroke:none;"/>
<path style=" stroke:none;fill-rule:nonzero;fill:rgb(0%,0%,0%);fill-opacity:1;" d="M 27.46875 28.230469 L 27.46875 25.75 C 27.46875 24.40625 27.992188 23.140625 28.945312 22.191406 C 29.894531 21.238281 31.160156 20.714844 32.503906 20.714844 C 33.847656 20.714844 35.113281 21.238281 36.0625 22.191406 C 37.015625 23.140625 37.539062 24.40625 37.539062 25.75 L 37.539062 28.230469 C 37.539062 29.578125 37.015625 30.839844 36.0625 31.792969 C 35.113281 32.742188 33.847656 33.265625 32.503906 33.265625 C 31.160156 33.265625 29.894531 32.742188 28.945312 31.792969 C 27.992188 30.839844 27.46875 29.578125 27.46875 28.230469 Z M 27.46875 28.230469 "/>
<path style=" stroke:none;fill-rule:nonzero;fill:rgb(0%,0%,0%);fill-opacity:1;" d="M 42.195312 42.335938 C 41.890625 42.851562 41.40625 43.222656 40.828125 43.382812 C 38.136719 44.128906 34.816406 44.285156 32.503906 44.285156 C 30.191406 44.285156 26.871094 44.128906 24.179688 43.382812 C 23.601562 43.222656 23.117188 42.851562 22.8125 42.335938 C 22.507812 41.820312 22.414062 41.214844 22.554688 40.632812 L 23.339844 37.316406 C 23.527344 36.53125 24.046875 35.867188 24.765625 35.492188 L 29.203125 33.191406 C 30.171875 33.839844 31.3125 34.1875 32.503906 34.1875 C 33.695312 34.1875 34.835938 33.839844 35.804688 33.191406 L 40.242188 35.492188 C 40.960938 35.867188 41.480469 36.53125 41.667969 37.316406 L 42.453125 40.632812 C 42.59375 41.214844 42.5 41.820312 42.195312 42.335938 Z M 42.195312 42.335938 "/>
<path style=" stroke:none;fill-rule:nonzero;fill:rgb(49.019608%,28.235295%,100%);fill-opacity:1;" d="M 51.300781 33.121094 C 51.226562 35.441406 50.734375 37.691406 49.832031 39.820312 C 48.886719 42.058594 47.53125 44.070312 45.800781 45.796875 C 44.074219 47.527344 42.0625 48.882812 39.824219 49.828125 C 37.695312 50.730469 35.445312 51.222656 33.125 51.296875 L 33.125 57.109375 C 36.226562 57.035156 39.238281 56.386719 42.085938 55.183594 C 45.019531 53.941406 47.652344 52.167969 49.910156 49.90625 C 52.171875 47.648438 53.945312 45.015625 55.1875 42.082031 C 56.390625 39.234375 57.039062 36.222656 57.113281 33.121094 Z M 51.300781 33.121094 "/>
<path style=" stroke:none;fill-rule:nonzero;fill:rgb(100%,76.47059%,18.039216%);fill-opacity:1;" d="M 55.1875 22.917969 C 53.945312 19.984375 52.171875 17.351562 49.910156 15.09375 C 47.652344 12.832031 45.019531 11.058594 42.085938 9.816406 C 39.238281 8.613281 36.226562 7.964844 33.125 7.890625 L 33.125 13.703125 C 35.445312 13.777344 37.695312 14.269531 39.824219 15.171875 C 42.0625 16.117188 44.074219 17.472656 45.800781 19.203125 C 47.53125 20.929688 48.886719 22.941406 49.832031 25.179688 C 50.734375 27.308594 51.226562 29.558594 51.300781 31.878906 L 57.113281 31.878906 C 57.039062 28.777344 56.390625 25.765625 55.1875 22.917969 Z M 55.1875 22.917969 "/>
<path style=" stroke:none;fill-rule:nonzero;fill:rgb(6.27451%,54.901963%,98.823529%);fill-opacity:1;" d="M 15.097656 15.09375 C 12.835938 17.351562 11.0625 19.984375 9.820312 22.917969 C 8.539062 25.953125 7.886719 29.179688 7.886719 32.5 C 7.886719 35.820312 8.539062 39.046875 9.820312 42.082031 C 10.136719 42.832031 10.488281 43.5625 10.875 44.269531 L 15.910156 41.363281 C 15.644531 40.859375 15.398438 40.347656 15.175781 39.820312 C 14.195312 37.503906 13.699219 35.039062 13.699219 32.5 C 13.699219 29.960938 14.195312 27.496094 15.175781 25.179688 C 16.121094 22.941406 17.476562 20.929688 19.207031 19.203125 C 20.933594 17.472656 22.945312 16.117188 25.183594 15.171875 C 27.3125 14.269531 29.5625 13.777344 31.882812 13.703125 L 31.882812 7.890625 C 28.78125 7.964844 25.769531 8.613281 22.921875 9.816406 C 19.988281 11.058594 17.355469 12.832031 15.097656 15.09375 Z M 15.097656 15.09375 "/>
<path style=" stroke:none;fill-rule:nonzero;fill:rgb(93.725491%,26.274511%,26.274511%);fill-opacity:1;" d="M 25.183594 49.828125 C 22.945312 48.882812 20.933594 47.527344 19.207031 45.796875 C 18.179688 44.773438 17.289062 43.648438 16.53125 42.4375 L 11.496094 45.347656 C 12.507812 46.996094 13.710938 48.519531 15.097656 49.90625 C 17.355469 52.167969 19.988281 53.941406 22.921875 55.183594 C 25.769531 56.386719 28.78125 57.035156 31.882812 57.109375 L 31.882812 51.296875 C 29.5625 51.222656 27.3125 50.730469 25.183594 49.828125 Z M 25.183594 49.828125 "/>
</g>
</svg>
