<?xml version="1.0" encoding="utf-8"?>
<!-- Generator: Adobe Illustrator 27.5.0, SVG Export Plug-In . SVG Version: 6.00 Build 0)  -->
<svg version="1.1" xmlns="http://www.w3.org/2000/svg" xmlns:xlink="http://www.w3.org/1999/xlink" x="0px" y="0px"
	 viewBox="0 0 2200 2200" style="enable-background:new 0 0 2200 2200;" xml:space="preserve">
<g id="background">
	<rect style="fill:#FFFFFF;" width="2200" height="2200"/>
</g>
<g id="Objects">
	<g>
		<g>
			<path d="M929.713,955.528v-83.963c0-45.521,17.727-88.316,49.915-120.504c32.187-32.188,74.983-49.914,120.504-49.914
				s88.317,17.727,120.504,49.914c32.188,32.188,49.915,74.983,49.915,120.504v83.963c0,45.52-17.727,88.316-49.915,120.504
				c-32.187,32.188-74.983,49.914-120.504,49.914s-88.317-17.727-120.504-49.914C947.439,1043.844,929.713,1001.048,929.713,955.528
				z"/>
			<path d="M1428.175,1432.88c-10.301,17.425-26.723,30-46.241,35.409c-91.122,25.262-203.541,30.565-281.803,30.565
				s-190.681-5.303-281.805-30.565c-19.516-5.409-35.938-17.984-46.24-35.409c-10.302-17.426-13.401-37.872-8.727-57.572
				l26.652-112.267c6.323-26.63,23.877-49.126,48.163-61.722l150.266-77.95c32.803,21.927,71.341,33.704,111.69,33.704
				c40.351,0,78.89-11.778,111.694-33.707l150.263,77.952c24.284,12.596,41.839,35.093,48.161,61.721l26.651,112.266
				C1441.576,1395.008,1438.477,1415.454,1428.175,1432.88z"/>
		</g>
		<path style="fill:#7D48FF;" d="M1736.319,1121.035c-2.524,78.536-19.189,154.7-49.644,226.702
			c-32.05,75.782-77.957,143.86-136.452,202.355c-58.495,58.495-126.573,104.401-202.355,136.452
			c-72.001,30.455-148.166,47.119-226.702,49.644v196.771c105.013-2.579,206.956-24.5,303.325-65.259
			c99.233-41.973,188.324-102.03,264.817-178.522s136.55-165.584,178.523-264.817c40.76-96.369,62.68-198.312,65.259-303.325
			H1736.319z"/>
		<path style="fill:#FFC32E;" d="M1867.831,775.639c-41.973-99.233-102.03-188.324-178.523-264.817s-165.584-136.55-264.817-178.522
			c-96.37-40.76-198.312-62.68-303.325-65.259v196.771c78.536,2.524,154.701,19.189,226.702,49.644
			c75.782,32.05,143.86,77.968,202.355,136.452c58.495,58.484,104.401,126.573,136.452,202.355
			c30.455,72.001,47.119,148.166,49.644,226.702h196.771C1930.511,973.951,1908.591,872.009,1867.831,775.639z"/>
		<path style="fill:#108CFC;" d="M510.954,510.823c-76.492,76.492-136.55,165.584-178.522,264.817
			C288.951,878.434,266.91,987.556,266.91,1100s22.041,221.566,65.521,324.361c10.72,25.341,22.609,50.015,35.667,73.99
			l170.425-98.391c-9.081-16.97-17.397-34.378-24.937-52.223c-33.165-78.416-49.982-161.76-49.982-247.737
			s16.817-169.321,49.982-247.737c32.05-75.782,77.957-143.871,136.452-202.355c58.495-58.484,126.573-104.401,202.355-136.452
			c72.001-30.455,148.166-47.119,226.702-49.644V267.041C974.083,269.62,872.14,291.541,775.77,332.3
			C676.538,374.273,587.446,434.33,510.954,510.823z"/>
		<path style="fill:#EF4343;" d="M852.394,1686.544c-75.782-32.05-143.86-77.957-202.355-136.452
			c-34.662-34.662-64.909-72.701-90.469-113.712l-170.425,98.402c34.159,55.828,74.897,107.483,121.809,154.394
			c76.492,76.492,165.584,136.55,264.817,178.522c96.37,40.76,198.312,62.68,303.325,65.259v-196.771
			C1000.56,1733.663,924.395,1716.999,852.394,1686.544z"/>
	</g>
</g>
</svg>
